<?xml version="1.0" encoding="UTF-8"?>
<svg width="400" height="400" viewBox="0 0 400 400" fill="none" xmlns="http://www.w3.org/2000/svg">
  <!-- Background -->
  <rect width="400" height="400" rx="200" fill="#1e293b" />
  
  <!-- Robot Head Outline -->
  <rect x="100" y="80" width="200" height="240" rx="20" fill="#334155" stroke="#10b981" stroke-width="4" />
  
  <!-- Robot Eyes -->
  <circle cx="150" cy="150" r="20" fill="#10b981" />
  <circle cx="250" cy="150" r="20" fill="#10b981" />
  
  <!-- Robot Antennas -->
  <line x1="150" y1="80" x2="150" y2="40" stroke="#10b981" stroke-width="4" />
  <circle cx="150" cy="30" r="10" fill="#10b981" />
  
  <line x1="250" y1="80" x2="250" y2="40" stroke="#10b981" stroke-width="4" />
  <circle cx="250" cy="30" r="10" fill="#10b981" />
  
  <!-- Robot Mouth -->
  <rect x="130" y="200" width="140" height="20" rx="10" fill="#10b981" />
  <line x1="150" y1="220" x2="150" y2="260" stroke="#10b981" stroke-width="4" />
  <line x1="200" y1="220" x2="200" y2="260" stroke="#10b981" stroke-width="4" />
  <line x1="250" y1="220" x2="250" y2="260" stroke="#10b981" stroke-width="4" />
  
  <!-- Digital Elements -->
  <rect x="120" y="290" width="160" height="30" rx="5" fill="#0ea5e9" />
  <rect x="130" y="300" width="20" height="10" rx="2" fill="#1e293b" />
  <rect x="160" y="300" width="20" height="10" rx="2" fill="#1e293b" />
  <rect x="190" y="300" width="20" height="10" rx="2" fill="#1e293b" />
  <rect x="220" y="300" width="20" height="10" rx="2" fill="#1e293b" />
  <rect x="250" y="300" width="20" height="10" rx="2" fill="#1e293b" />
  
  <!-- Status Indicators -->
  <circle cx="120" cy="120" r="5" fill="#f43f5e" />
  <circle cx="120" cy="140" r="5" fill="#f59e0b" />
  <circle cx="120" cy="160" r="5" fill="#10b981" />
  
  <circle cx="280" cy="120" r="5" fill="#f43f5e" />
  <circle cx="280" cy="140" r="5" fill="#f59e0b" />
  <circle cx="280" cy="160" r="5" fill="#10b981" />
</svg> 